<?xml version="1.0" encoding="UTF-8"?>
<!DOCTYPE svg PUBLIC "-//W3C//DTD SVG 1.1//EN" "http://www.w3.org/Graphics/SVG/1.1/DTD/svg11.dtd">
<!-- Creator: CorelDRAW -->
<svg xmlns="http://www.w3.org/2000/svg" xml:space="preserve" width="297mm" height="210mm" version="1.1" style="shape-rendering:geometricPrecision; text-rendering:geometricPrecision; image-rendering:optimizeQuality; fill-rule:evenodd; clip-rule:evenodd"
viewBox="0 0 29700 21000"
 xmlns:xlink="http://www.w3.org/1999/xlink"
 xmlns:xodm="http://www.corel.com/coreldraw/odm/2003">
 <defs>
  <style type="text/css">
   <![CDATA[
    .fil4 {fill:#0069B5;fill-rule:nonzero}
    .fil3 {fill:#1189DF;fill-rule:nonzero}
    .fil0 {fill:#26A7E2;fill-rule:nonzero}
    .fil1 {fill:#6ED1FF;fill-rule:nonzero}
    .fil2 {fill:#93DDFF;fill-rule:nonzero}
    .fil6 {fill:#EBA123;fill-rule:nonzero}
    .fil5 {fill:#EDBC16;fill-rule:nonzero}
    .fil7 {fill:white;fill-rule:nonzero}
   ]]>
  </style>
 </defs>
 <g id="Camada_x0020_1">
  <metadata id="CorelCorpID_0Corel-Layer"/>
  <g id="_576204568">
   <path class="fil0" d="M17103.41 7594.43c-1503.43,-910.06 -3536.64,-1959.77 -5959.57,-2768.24 -450.64,511.7 -798.18,1116.06 -1009.26,1781.63 1683.04,831.16 4003.69,2002.15 5905.48,2966.34 448.98,-702.71 795.91,-1374.68 1063.35,-1979.73z"/>
   <path class="fil1" d="M17320.7 7526.09c499.64,305.85 938.57,594.61 1311.03,851.57 98.36,-327.24 173.1,-639.53 228.73,-929.7 53.32,-278.16 91.85,-546.07 118.97,-800.53 -339.1,-346.97 -676.78,-672.2 -1009.99,-977.14 -111.07,408.11 -255.78,864.8 -444.86,1355.58 -61.76,160.26 -129.6,327.35 -203.88,500.22z"/>
   <path class="fil0" d="M16193.78 9652.1c561.47,284.78 1082.61,549.53 1535.75,779.99 385.19,-648.46 657.41,-1288.19 848.73,-1882.83 -374.43,-259.51 -818.37,-552.85 -1326.91,-864.76 -267.48,602.55 -612.98,1270.05 -1057.57,1967.6z"/>
   <path class="fil2" d="M15006.87 3139.22c839.83,554.04 1828.13,1283.76 2868.14,2214.39 104.75,-419.55 170.94,-774.1 212.78,-1044.94 -836.28,-705.71 -1908.11,-1139.98 -3080.92,-1169.45z"/>
   <path class="fil0" d="M18725.62 8652.04c-193.01,588.72 -464.24,1219.35 -842.6,1858.15 415.5,211.35 765.55,389.69 1027.56,523.22 357.76,-493.06 627.9,-1053.69 786.01,-1659.97 -212.78,-168.36 -539.21,-417.77 -970.97,-721.4z"/>
   <path class="fil3" d="M16819.05 11967.66c300.93,73.31 612.45,143.35 934.18,209.73 398.05,-282.01 752.68,-620.73 1052.37,-1004.79 -261.17,-133.15 -605.86,-308.71 -1011.57,-515.09 -270.34,437.85 -591.99,878.12 -974.98,1310.15z"/>
   <path class="fil3" d="M15945.94 9718.9c-1888.04,-957.17 -4185.14,-2116.3 -5860.25,-2943.84 -118.78,426.14 -183.61,874.77 -183.61,1338.78 0,256.19 19.45,507.85 56.78,753.64 726.6,588.87 2239.09,1620.9 4751.21,2485 477.14,-549.92 886.05,-1099.61 1235.87,-1633.58z"/>
   <path class="fil1" d="M19030.36 7473.11c-59.91,313.6 -141.12,652.21 -250.26,1007.69 414.81,290.4 737.38,534.16 959.83,708.37 76.32,-346.46 117.77,-705.95 117.77,-1075.33 0,-187.97 -11.32,-373.24 -31.63,-555.82 -230.42,-260.16 -461.46,-510.69 -692.11,-750.87 -25.85,214.02 -59.79,436.62 -103.6,665.96z"/>
   <path class="fil4" d="M14588.63 11491.44c-2328.5,-809.7 -3801.34,-1762.52 -4584.31,-2369.61 355.71,1729.54 1609.08,3130.42 3251.24,3697.29 492.94,-436.07 936.33,-881.36 1333.07,-1327.68z"/>
   <path class="fil4" d="M16498.44 12064.36c-623.04,-159.31 -1200.35,-332.06 -1734.24,-512.7 -393.16,446.4 -832.12,891.99 -1319.75,1328.91 454.61,136.73 936.26,211.08 1435.44,211.08 178.53,0 354.75,-9.82 528.42,-28.16 407.07,-322.77 768.94,-657.64 1090.13,-999.13z"/>
   <path class="fil1" d="M17172.45 7435.82c69.58,-162.69 133.65,-320.38 191.94,-471.67 200.18,-519.52 350.12,-999.98 462.5,-1423.38 -1148.73,-1035.34 -2236.62,-1824.39 -3131.27,-2400.09 -1347.44,49.13 -2557.54,633.49 -3425.1,1547.2 2393.57,806.04 4406.09,1844.05 5901.93,2747.94z"/>
   <path class="fil3" d="M17640.31 10579.3c-454.88,-231.35 -977.44,-496.83 -1540.42,-782.34 -344.88,527.88 -746.44,1071.13 -1214.07,1614.96 536.67,179.57 1117.52,350.97 1744.46,508.78 399.01,-441.74 732.06,-892.88 1010.03,-1341.4z"/>
   <path class="fil4" d="M15737.13 13016.6c659.56,-114.53 1274.28,-358.67 1817.5,-705.56 -297.77,-63.34 -587.02,-129.72 -866.84,-198.99 -283.93,307.79 -599.77,610.56 -950.66,904.55z"/>
   <path class="fil2" d="M18018.94 5483.17c323.7,294.11 651.82,607.9 981.52,941.35 32.98,-393.93 39.03,-750.41 31.63,-1055.61 -225.72,-340.69 -491.74,-652.25 -792.05,-927.21 -46.31,279.93 -116.15,632.68 -221.1,1041.47z"/>
   <path class="fil2" d="M19158.04 6585.17c207.69,213.82 415.81,436.23 623.65,666.07 -100.09,-572.53 -297.73,-1111.12 -575.61,-1598.51 -1.43,281.08 -14.83,594.45 -48.04,932.44z"/>
   <path class="fil5" d="M10531.13 10624.61c447.59,775.33 259.08,1578.94 259.04,1578.98 0,0 803.65,-188.58 1578.95,259.05 47.23,27.28 92.38,55.86 135.73,85.41l3663.27 -4434.21 -1941.21 -1527.67 2918.42 -2986.83c-581.13,-452.68 -768.48,-1072.14 -768.48,-1072.18 0,0 -601.7,565.14 -1496.96,565.14 -895.26,0 -1496.92,-565.06 -1496.92,-565.14 0,0 -238.52,790.24 -1013.85,1237.88 -775.3,447.63 -1578.91,259.12 -1578.95,259.08 0,0 188.55,803.61 -259.04,1578.95 -447.67,775.29 -1237.84,1013.84 -1237.92,1013.81 0,0 565.14,601.69 565.14,1496.96 0,895.26 -565.06,1496.92 -565.14,1496.96 0,0 790.25,238.51 1237.92,1013.81z"/>
   <path class="fil6" d="M14471.82 6778.88c-1890.5,1787.94 -3691.05,2737.3 -4587.54,3141.28 221.06,158 462.85,385.84 646.85,704.45 447.59,775.33 259.08,1578.94 259.04,1578.98 0,0 803.65,-188.58 1578.95,259.05 47.23,27.28 92.38,55.86 135.73,85.41l3663.27 -4434.21 -1696.3 -1334.96z"/>
   <path class="fil7" d="M17883.83 7944.59c-3.62,-28.24 -20.92,-52.89 -46.35,-65.76l-2297.8 -1166.18 2060.68 -3459.66c21.11,-35.45 14.02,-80.87 -16.84,-108.18 -30.93,-27.36 -76.86,-28.82 -109.45,-3.59l-4663.98 3613.12c-23.12,17.95 -35.52,46.42 -32.9,75.55 2.62,29.12 19.84,54.93 45.8,68.46l2213.01 1152.3 -2784.85 4671.31c-21.65,36.29 -13.63,82.87 18.84,109.87 15.91,13.29 35.41,19.84 54.9,19.84 20.23,0 40.45,-7.08 56.63,-21.34l5473.84 -4810.5c21.34,-18.83 32.02,-47 28.47,-75.24z"/>
   <polygon class="fil4" points="6694.77,17794.09 4660.25,17794.09 4660.25,14259.68 6694.77,14259.68 6694.77,14873.5 5407.73,14873.5 5407.73,15650.68 6605.66,15650.68 6605.66,16264.49 5407.73,16264.49 5407.73,17175.32 6694.77,17175.32 "/>
   <path id="_1" class="fil4" d="M10362.82 15992.24c0,396.01 -74.25,727.67 -227.7,994.98 -153.46,267.3 -371.27,470.26 -663.32,603.91 -287.11,133.66 -633.62,202.96 -1039.54,202.96l-999.93 0 0 -3534.41 1108.84 0c371.26,0 693.02,64.35 965.28,198.01 272.25,133.65 480.16,326.71 628.67,584.12 153.45,252.45 227.7,569.26 227.7,950.43zm-777.17 19.8c0,-262.36 -39.6,-475.22 -113.85,-643.52 -74.26,-168.31 -188.11,-292.06 -341.57,-371.26 -148.5,-84.16 -331.66,-123.76 -549.46,-123.76l-400.96 0 0 2301.82 321.76 0c366.31,0 638.57,-99 816.77,-292.06 178.21,-193.05 267.31,-485.11 267.31,-871.22z"/>
   <path id="_2" class="fil4" d="M12590.39 17794.09l-851.43 -2772.08 -19.8 0c4.95,64.35 9.9,163.35 14.85,297 4.95,133.66 14.85,272.26 19.8,425.72 4.95,148.5 9.9,282.16 9.9,405.91l0 1643.45 -668.27 0 0 -3534.41 1019.73 0 836.58 2702.78 14.85 0 886.08 -2702.78 1019.73 0 0 3534.41 -697.97 0 0 -1673.15c0,-113.85 0,-242.56 4.95,-386.11 4.95,-143.56 14.85,-282.16 19.8,-415.82 4.95,-128.7 4.95,-227.7 9.9,-292.05l-19.8 0 -910.83 2767.13 -688.07 0z"/>
   <path id="_3" class="fil4" d="M18971.13 16021.94c0,272.25 -34.65,524.71 -99,747.47 -69.3,222.76 -173.26,410.86 -306.91,574.22 -138.61,163.35 -311.86,287.11 -524.72,371.26 -212.85,84.15 -465.31,128.7 -752.42,128.7 -287.11,0 -539.57,-44.55 -752.42,-128.7 -212.86,-89.11 -386.11,-212.86 -524.72,-371.26 -133.65,-163.36 -237.61,-356.41 -301.96,-579.17 -69.3,-222.76 -103.95,-475.22 -103.95,-747.47 0,-366.31 59.4,-683.12 178.2,-955.38 123.76,-272.26 306.91,-480.17 559.37,-628.67 247.51,-153.46 564.32,-227.71 950.43,-227.71 381.16,0 697.97,74.25 945.48,227.71 247.51,148.5 430.66,356.41 549.47,628.67 123.75,272.26 183.15,594.02 183.15,960.33zm-2579.03 0c0,247.5 29.7,460.36 94.06,638.57 64.35,178.2 158.4,316.81 292.05,410.86 133.66,94.05 301.96,143.55 509.87,143.55 212.86,0 386.11,-49.5 514.82,-143.55 133.65,-94.05 227.7,-232.66 292.05,-410.86 59.41,-178.21 89.11,-391.07 89.11,-638.57 0,-371.26 -69.31,-663.32 -207.91,-876.18 -138.6,-212.86 -366.31,-316.81 -683.12,-316.81 -212.86,0 -381.16,49.5 -514.82,143.55 -133.65,94.06 -227.7,232.66 -292.05,410.87 -64.36,178.2 -94.06,391.06 -94.06,638.57z"/>
   <path id="_4" class="fil4" d="M22837.2 17794.09l-950.43 0 -1539.5 -2673.08 -19.8 0c4.95,113.85 9.9,222.76 14.85,336.61 4.95,113.85 9.9,222.76 14.85,336.61 4.95,113.85 9.9,222.76 14.85,336.61l0 1663.25 -668.27 0 0 -3534.41 945.48 0 1534.55 2648.33 14.85 0c-4.95,-108.9 -4.95,-217.8 -9.9,-326.71 -4.95,-108.9 -9.9,-217.8 -14.85,-326.71 -4.95,-103.95 -4.95,-212.85 -9.9,-321.76l0 -1673.15 673.22 0 0 3534.41z"/>
   <path id="_5" class="fil4" d="M26658.71 15992.24c0,396.01 -74.25,727.67 -227.7,994.98 -153.46,267.3 -371.27,470.26 -663.32,603.91 -287.11,133.66 -633.62,202.96 -1039.54,202.96l-999.93 0 0 -3534.41 1108.84 0c371.26,0 693.02,64.35 965.28,198.01 272.25,133.65 480.16,326.71 628.67,584.12 153.45,252.45 227.7,569.26 227.7,950.43zm-777.17 19.8c0,-262.36 -39.6,-475.22 -113.85,-643.52 -74.26,-168.31 -188.11,-292.06 -341.57,-371.26 -148.5,-84.16 -331.66,-123.76 -549.46,-123.76l-400.96 0 0 2301.82 321.76 0c366.31,0 638.57,-99 816.77,-292.06 178.21,-193.05 267.31,-485.11 267.31,-871.22z"/>
  </g>
 </g>
</svg>
