<?xml version="1.0" encoding="UTF-8"?>
<!DOCTYPE svg PUBLIC "-//W3C//DTD SVG 1.1//EN" "http://www.w3.org/Graphics/SVG/1.1/DTD/svg11.dtd">
<!-- Creator: CorelDRAW -->
<svg xmlns="http://www.w3.org/2000/svg" xml:space="preserve" width="297mm" height="210mm" version="1.1" style="shape-rendering:geometricPrecision; text-rendering:geometricPrecision; image-rendering:optimizeQuality; fill-rule:evenodd; clip-rule:evenodd"
viewBox="0 0 29700 21000"
 xmlns:xlink="http://www.w3.org/1999/xlink"
 xmlns:xodm="http://www.corel.com/coreldraw/odm/2003">
 <defs>
  <style type="text/css">
   <![CDATA[
    .fil4 {fill:#0069B5;fill-rule:nonzero}
    .fil3 {fill:#1189DF;fill-rule:nonzero}
    .fil0 {fill:#26A7E2;fill-rule:nonzero}
    .fil1 {fill:#6ED1FF;fill-rule:nonzero}
    .fil2 {fill:#93DDFF;fill-rule:nonzero}
    .fil6 {fill:#EBA123;fill-rule:nonzero}
    .fil5 {fill:#EDBC16;fill-rule:nonzero}
    .fil7 {fill:white;fill-rule:nonzero}
   ]]>
  </style>
 </defs>
 <g id="Camada_x0020_1">
  <metadata id="CorelCorpID_0Corel-Layer"/>
  <g id="_477040208">
   <path class="fil0" d="M18477.57 10302.9c-2502.14,-1514.6 -5885.97,-3261.62 -9918.41,-4607.14 -749.99,851.62 -1328.4,1857.44 -1679.7,2965.14 2801.06,1383.28 6663.27,3332.15 9828.39,4936.83 747.23,-1169.52 1324.61,-2287.86 1769.72,-3294.83z"/>
   <path class="fil1" d="M18839.19 10189.15c831.55,509.03 1562.05,989.6 2181.94,1417.26 163.69,-544.61 288.08,-1064.35 380.67,-1547.29 88.74,-462.93 152.85,-908.81 197.99,-1332.31 -564.36,-577.44 -1126.36,-1118.73 -1680.91,-1626.22 -184.85,679.2 -425.68,1439.25 -740.37,2256.05 -102.78,266.73 -215.7,544.81 -339.32,832.51z"/>
   <path class="fil0" d="M16963.68 13727.44c934.46,473.96 1801.78,914.57 2555.93,1298.13 641.06,-1079.24 1094.11,-2143.91 1412.52,-3133.57 -623.16,-431.9 -1361.99,-920.1 -2208.35,-1439.2 -445.17,1002.81 -1020.18,2113.72 -1760.1,3274.64z"/>
   <path class="fil2" d="M14988.33 2888.17c1397.71,922.08 3042.53,2136.53 4773.39,3685.37 174.34,-698.25 284.5,-1288.32 354.13,-1739.07 -1391.81,-1174.52 -3175.64,-1897.25 -5127.52,-1946.3z"/>
   <path class="fil0" d="M21177.38 12063.06c-321.23,979.79 -772.62,2029.34 -1402.32,3092.48 691.51,351.75 1274.09,648.55 1710.16,870.78 595.39,-820.58 1044.99,-1753.62 1308.13,-2762.65 -354.12,-280.19 -897.4,-695.29 -1615.97,-1200.61z"/>
   <path class="fil3" d="M18004.31 17581.18c500.83,122.02 1019.29,238.59 1554.74,349.06 662.46,-469.34 1252.67,-1033.07 1751.44,-1672.26 -434.65,-221.59 -1008.32,-513.78 -1683.54,-857.26 -449.92,728.7 -985.24,1461.44 -1622.64,2180.46z"/>
   <path class="fil3" d="M16551.21 13838.62c-3142.23,-1593.01 -6965.26,-3522.13 -9753.11,-4899.39 -197.68,709.21 -305.59,1455.87 -305.59,2228.1 0,426.39 32.38,845.21 94.51,1254.28 1209.27,980.04 3726.47,2697.63 7907.35,4135.74 794.1,-915.22 1474.65,-1830.06 2056.84,-2718.73z"/>
   <path class="fil1" d="M21684.56 10100.99c-99.71,521.92 -234.87,1085.45 -416.51,1677.07 690.36,483.32 1227.22,888.99 1597.43,1178.93 127.02,-576.61 196.01,-1174.89 196.01,-1789.66 0,-312.83 -18.85,-621.17 -52.64,-925.03 -383.49,-432.98 -768,-849.94 -1151.88,-1249.66 -43.02,356.18 -99.51,726.65 -172.41,1108.35z"/>
   <path class="fil4" d="M14292.27 16788.62c-3875.29,-1347.57 -6326.52,-2933.33 -7629.59,-3943.7 592,2878.44 2677.95,5209.9 5410.98,6153.33 820.39,-725.75 1558.32,-1466.82 2218.61,-2209.63z"/>
   <path class="fil4" d="M17470.73 17742.12c-1036.92,-265.13 -1997.73,-552.63 -2886.28,-853.28 -654.32,742.93 -1384.88,1484.52 -2196.42,2211.68 756.59,227.56 1558.19,351.3 2388.97,351.3 297.12,0 590.4,-16.35 879.44,-46.87 677.47,-537.18 1279.73,-1094.49 1814.29,-1662.83z"/>
   <path class="fil1" d="M18592.47 10038.92c115.8,-270.77 222.42,-533.2 319.43,-784.99 333.16,-864.64 582.71,-1664.25 769.74,-2368.91 -1911.8,-1723.1 -3722.37,-3036.3 -5211.32,-3994.42 -2242.52,81.75 -4256.47,1054.29 -5700.34,2574.98 3983.59,1341.48 7332.98,3069.01 9822.49,4573.34z"/>
   <path class="fil3" d="M19371.12 15270.56c-757.04,-385.03 -1626.74,-826.86 -2563.7,-1302.04 -573.98,878.54 -1242.28,1782.67 -2020.54,2687.76 893.16,298.85 1859.87,584.12 2903.26,846.74 664.07,-735.17 1218.37,-1486 1680.98,-2232.46z"/>
   <path class="fil4" d="M16203.69 19326.92c1097.7,-190.62 2120.77,-596.94 3024.83,-1174.25 -495.57,-105.41 -976.97,-215.89 -1442.66,-331.17 -472.54,512.24 -998.18,1016.14 -1582.17,1505.42z"/>
   <path class="fil2" d="M20001.27 6789.17c538.72,489.47 1084.81,1011.71 1633.53,1566.66 54.89,-655.61 64.95,-1248.89 52.64,-1756.84 -375.66,-566.99 -818.4,-1085.51 -1318.2,-1543.12 -77.07,465.88 -193.31,1052.94 -367.97,1733.3z"/>
   <path class="fil2" d="M21897.04 8623.2c345.66,355.85 692.03,726 1037.95,1108.53 -166.58,-952.85 -495.51,-1849.22 -957.99,-2660.38 -2.37,467.8 -24.69,989.34 -79.96,1551.85z"/>
   <path class="fil5" d="M7539.43 15345.97c744.92,1290.37 431.19,2627.81 431.13,2627.87 0,0 1337.5,-313.86 2627.81,431.13 78.61,45.4 153.75,92.97 225.89,142.15l6096.72 -7379.79 -3230.71 -2542.47 4857.06 -4970.93c-967.16,-753.39 -1278.96,-1784.34 -1278.96,-1784.41 0,0 -1001.4,940.55 -2491.37,940.55 -1489.97,0 -2491.3,-940.42 -2491.3,-940.55 0,0 -396.96,1315.19 -1687.33,2060.18 -1290.31,744.98 -2627.75,431.26 -2627.81,431.19 0,0 313.79,1337.44 -431.13,2627.81 -745.05,1290.31 -2060.11,1687.33 -2060.24,1687.27 0,0 940.55,1001.39 940.55,2491.36 0,1489.98 -940.42,2491.31 -940.55,2491.37 0,0 1315.19,396.96 2060.24,1687.27z"/>
   <path class="fil6" d="M14097.86 8945.58c-3146.33,2975.65 -6142.95,4555.65 -7634.97,5227.99 367.91,262.95 770.31,642.14 1076.54,1172.4 744.92,1290.37 431.19,2627.81 431.13,2627.87 0,0 1337.5,-313.86 2627.81,431.13 78.61,45.4 153.75,92.97 225.89,142.15l6096.72 -7379.79 -2823.12 -2221.75z"/>
   <path class="fil7" d="M19776.41 10885.66c-6.03,-46.99 -34.82,-88.03 -77.14,-109.45l-3824.18 -1940.85 3429.54 -5757.85c35.13,-58.99 23.34,-134.59 -28.02,-180.05 -51.49,-45.52 -127.92,-47.96 -182.16,-5.96l-7762.19 6013.24c-38.47,29.88 -59.11,77.26 -54.75,125.73 4.36,48.48 33.02,91.44 76.23,113.94l3683.07 1917.77 -4634.77 7774.37c-36.03,60.4 -22.7,137.92 31.35,182.86 26.48,22.12 58.93,33.02 91.37,33.02 33.66,0 67.33,-11.79 94.25,-35.52l9110.01 -8006.02c35.53,-31.36 53.29,-78.23 47.39,-125.23z"/>
  </g>
 </g>
</svg>
